<svg id="visual" viewBox="0 0 960 540" width="960" height="540" xmlns="http://www.w3.org/2000/svg" xmlns:xlink="http://www.w3.org/1999/xlink" version="1.1"><path d="M319 0L300.8 12.8C282.7 25.7 246.3 51.3 217.5 77C188.7 102.7 167.3 128.3 191.5 154C215.7 179.7 285.3 205.3 307.8 231.2C330.3 257 305.7 283 288.8 308.8C272 334.7 263 360.3 286.7 386C310.3 411.7 366.7 437.3 385 463C403.3 488.7 383.7 514.3 373.8 527.2L364 540L0 540L0 527.2C0 514.3 0 488.7 0 463C0 437.3 0 411.7 0 386C0 360.3 0 334.7 0 308.8C0 283 0 257 0 231.2C0 205.3 0 179.7 0 154C0 128.3 0 102.7 0 77C0 51.3 0 25.7 0 12.8L0 0Z" fill="#A8A89E" stroke-linecap="round" stroke-linejoin="miter"></path></svg>